HIERARCHY
ROOT Hips
{
  OFFSET -21.6994 31.6921 0
  CHANNELS 6 Xposition Yposition Zposition Zrotation Xrotation Yrotation
  JOINT Bip01_Pelvis
  {
    OFFSET 0 0 0
    CHANNELS 6 Xposition Yposition Zposition Zrotation Xrotation Yrotation
    JOINT BN_Tail_01
    {
      OFFSET -7.25226 -1.74978 0
      CHANNELS 6 Xposition Yposition Zposition Zrotation Xrotation Yrotation
      JOINT BN_Tail_02
      {
        OFFSET 15.788 0 0
        CHANNELS 6 Xposition Yposition Zposition Zrotation Xrotation Yrotation
        JOINT BN_Tail_03
        {
          OFFSET 16.0015 0 0
          CHANNELS 6 Xposition Yposition Zposition Zrotation Xrotation Yrotation
          JOINT BN_Tail_04
          {
            OFFSET 16.1689 0 0
            CHANNELS 6 Xposition Yposition Zposition Zrotation Xrotation Yrotation
            End Site
            {
              OFFSET 0 0 0
            }
          }
        }
      }
    }
    JOINT Bip01_Spine
    {
      OFFSET 6.38383 2.70859 0.585432
      CHANNELS 6 Xposition Yposition Zposition Zrotation Xrotation Yrotation
      JOINT BN_Mane_02
      {
        OFFSET 6.12662 8.45826 0
        CHANNELS 6 Xposition Yposition Zposition Zrotation Xrotation Yrotation
        End Site
        {
          OFFSET 0 0 0
        }
      }
      JOINT Bip01_R_Thigh
      {
        OFFSET -7.04074 -2.18223 -5.47025
        CHANNELS 6 Xposition Yposition Zposition Zrotation Xrotation Yrotation
        JOINT Bip01_R_Calf
        {
          OFFSET 13.6591 0 0
          CHANNELS 6 Xposition Yposition Zposition Zrotation Xrotation Yrotation
          JOINT Bip01_R_HorseLink
          {
            OFFSET 9.07516 0 0
            CHANNELS 6 Xposition Yposition Zposition Zrotation Xrotation Yrotation
            JOINT Bip01_R_Foot
            {
              OFFSET 8.13856 0 0
              CHANNELS 6 Xposition Yposition Zposition Zrotation Xrotation Yrotation
              JOINT Bip01_R_Toe0
              {
                OFFSET 3.79737 6.30086 0
                CHANNELS 6 Xposition Yposition Zposition Zrotation Xrotation Yrotation
                JOINT Bip01_R_Toe0Nub
                {
                  OFFSET 0.838764 0 0
                  CHANNELS 6 Xposition Yposition Zposition Zrotation Xrotation Yrotation
                  End Site
                  {
                    OFFSET 0 0 0
                  }
                }
              }
            }
          }
        }
      }
      JOINT Bip01_L_Thigh
      {
        OFFSET -6.18667 -2.14873 5.3508
        CHANNELS 6 Xposition Yposition Zposition Zrotation Xrotation Yrotation
        JOINT Bip01_L_Calf
        {
          OFFSET 13.6591 0 0
          CHANNELS 6 Xposition Yposition Zposition Zrotation Xrotation Yrotation
          JOINT Bip01_L_HorseLink
          {
            OFFSET 9.07515 0 0
            CHANNELS 6 Xposition Yposition Zposition Zrotation Xrotation Yrotation
            JOINT Bip01_L_Foot
            {
              OFFSET 8.13856 0 0
              CHANNELS 6 Xposition Yposition Zposition Zrotation Xrotation Yrotation
              JOINT Bip01_L_Toe0
              {
                OFFSET 3.79737 6.30086 0
                CHANNELS 6 Xposition Yposition Zposition Zrotation Xrotation Yrotation
                JOINT Bip01_L_Toe0Nub
                {
                  OFFSET 0.838764 0 0
                  CHANNELS 6 Xposition Yposition Zposition Zrotation Xrotation Yrotation
                  End Site
                  {
                    OFFSET 0 0 0
                  }
                }
              }
            }
          }
        }
      }
      JOINT Bip01_Spine1
      {
        OFFSET 12.1687 -0.0105438 0
        CHANNELS 6 Xposition Yposition Zposition Zrotation Xrotation Yrotation
        JOINT BN_Mane_R_01
        {
          OFFSET -0.157498 5.09008 -6.54008
          CHANNELS 6 Xposition Yposition Zposition Zrotation Xrotation Yrotation
          End Site
          {
            OFFSET 0 0 0
          }
        }
        JOINT BN_Mane_R_02
        {
          OFFSET -0.1575 5.09007 6.54
          CHANNELS 6 Xposition Yposition Zposition Zrotation Xrotation Yrotation
          End Site
          {
            OFFSET 0 0 0
          }
        }
        JOINT BN_Mane_01
        {
          OFFSET 8.29709 8.50414 0
          CHANNELS 6 Xposition Yposition Zposition Zrotation Xrotation Yrotation
          End Site
          {
            OFFSET 0 0 0
          }
        }
        JOINT Bip01_Spine2
        {
          OFFSET 13.2802 -0.0100708 1.51992e-005
          CHANNELS 6 Xposition Yposition Zposition Zrotation Xrotation Yrotation
          JOINT Bip01_Neck
          {
            OFFSET 12.4891 -6.66662 0
            CHANNELS 6 Xposition Yposition Zposition Zrotation Xrotation Yrotation
            JOINT Bip01_R_Clavicle
            {
              OFFSET -7.4542 -2.82621 -1.17874
              CHANNELS 6 Xposition Yposition Zposition Zrotation Xrotation Yrotation
              JOINT Bip01_R_UpperArm
              {
                OFFSET 13.2557 0 0
                CHANNELS 6 Xposition Yposition Zposition Zrotation Xrotation Yrotation
                JOINT Bip01_R_Forearm
                {
                  OFFSET 12.8897 0 0
                  CHANNELS 6 Xposition Yposition Zposition Zrotation Xrotation Yrotation
                  JOINT Bip01_R_Hand
                  {
                    OFFSET 11.2622 0 0
                    CHANNELS 6 Xposition Yposition Zposition Zrotation Xrotation Yrotation
                    JOINT Bip01_R_Finger0
                    {
                      OFFSET 3.98015 -0.208661 -0.0949803
                      CHANNELS 6 Xposition Yposition Zposition Zrotation Xrotation Yrotation
                      JOINT Bip01_R_Finger0Nub
                      {
                        OFFSET 6.57561 0 0
                        CHANNELS 6 Xposition Yposition Zposition Zrotation Xrotation Yrotation
                        End Site
                        {
                          OFFSET 0 0 0
                        }
                      }
                    }
                  }
                }
              }
            }
            JOINT Bip01_L_Clavicle
            {
              OFFSET -7.4541 -2.82679 1.17708
              CHANNELS 6 Xposition Yposition Zposition Zrotation Xrotation Yrotation
              JOINT Bip01_L_UpperArm
              {
                OFFSET 13.2558 0 0
                CHANNELS 6 Xposition Yposition Zposition Zrotation Xrotation Yrotation
                JOINT Bip01_L_Forearm
                {
                  OFFSET 12.8897 0 0
                  CHANNELS 6 Xposition Yposition Zposition Zrotation Xrotation Yrotation
                  JOINT Bip01_L_Hand
                  {
                    OFFSET 11.2622 0 0
                    CHANNELS 6 Xposition Yposition Zposition Zrotation Xrotation Yrotation
                    JOINT Bip01_L_Finger0
                    {
                      OFFSET 3.98014 -0.20866 0.0949764
                      CHANNELS 6 Xposition Yposition Zposition Zrotation Xrotation Yrotation
                      JOINT Bip01_L_Finger0Nub
                      {
                        OFFSET 6.57562 0 0
                        CHANNELS 6 Xposition Yposition Zposition Zrotation Xrotation Yrotation
                        End Site
                        {
                          OFFSET 0 0 0
                        }
                      }
                    }
                  }
                }
              }
            }
            JOINT Bip01_Neck1
            {
              OFFSET 4.19352 -0.00332451 0
              CHANNELS 6 Xposition Yposition Zposition Zrotation Xrotation Yrotation
              JOINT Bip01_Head
              {
                OFFSET 4.17604 0.298252 0
                CHANNELS 6 Xposition Yposition Zposition Zrotation Xrotation Yrotation
                JOINT BN_Eye_R_01
                {
                  OFFSET 6.53258 -3.90694 -2.55361
                  CHANNELS 6 Xposition Yposition Zposition Zrotation Xrotation Yrotation
                  End Site
                  {
                    OFFSET 0 0 0
                  }
                }
                JOINT BN_Eye_L_01
                {
                  OFFSET 6.5326 -3.90694 2.55371
                  CHANNELS 6 Xposition Yposition Zposition Zrotation Xrotation Yrotation
                  End Site
                  {
                    OFFSET 0 0 0
                  }
                }
                JOINT BN_Ear_R_01
                {
                  OFFSET 1.75934 -4.1584 -4.45634
                  CHANNELS 6 Xposition Yposition Zposition Zrotation Xrotation Yrotation
                  End Site
                  {
                    OFFSET 0 0 0
                  }
                }
                JOINT BN_Ear_L_01
                {
                  OFFSET 1.75933 -4.15841 4.45616
                  CHANNELS 6 Xposition Yposition Zposition Zrotation Xrotation Yrotation
                  End Site
                  {
                    OFFSET 0 0 0
                  }
                }
                JOINT BN_Beard_L_01
                {
                  OFFSET 11.2964 -1.06183 2.32054
                  CHANNELS 6 Xposition Yposition Zposition Zrotation Xrotation Yrotation
                  End Site
                  {
                    OFFSET 0 0 0
                  }
                }
                JOINT BN_Beard_R_01
                {
                  OFFSET 11.2964 -1.06182 -2.32036
                  CHANNELS 6 Xposition Yposition Zposition Zrotation Xrotation Yrotation
                  End Site
                  {
                    OFFSET 0 0 0
                  }
                }
                JOINT BN_Mouth_0
                {
                  OFFSET 1.3149 1.30001 0
                  CHANNELS 6 Xposition Yposition Zposition Zrotation Xrotation Yrotation
                  End Site
                  {
                    OFFSET 0 0 0
                  }
                }
                JOINT Bip01_HeadNub
                {
                  OFFSET 12.6869 0 0
                  CHANNELS 6 Xposition Yposition Zposition Zrotation Xrotation Yrotation
                  End Site
                  {
                    OFFSET 0 0 0
                  }
                }
              }
            }
          }
        }
      }
    }
  }
}
MOTION
Frames:	4
Frame Time:	0.0333333
-30.2956 7.67337 0 176.373 -22.8909 -88.91 0 0 1.90735e-006 -105.354 -4.04101 -86.8283 -7.25225 -1.74978 -4.76837e-007 -27.1698 -4.70253 -166.592 15.788 0 -1.90735e-006 12.4819 18.1066 -11.1531 16.0015 1.90735e-006 9.53674e-007 35.1399 -21.587 6.2865 16.1689 -7.6294e-006 -5.96046e-008 36.3023 -17.012 -1.65715 6.52909 2.15392 1.08511 1.79155 -16.8203 3.79045 6.12663 8.45827 4.76837e-007 -88.9944 -0.0325012 -179.967 -6.12942 0.019474 -7.21877 -97.6463 -13.9819 -155.051 13.6591 3.8147e-006 0 -67.1035 4.55276e-006 1.26733e-005 9.07514 7.15256e-007 0 91.8108 9.31737e-006 1.18955e-006 8.13855 0 3.55271e-015 -73.5822 -7.89698 0.221896 3.79736 6.30085 -1.90735e-006 89.3797 4.64203e-006 -7.3022e-006 0.838763 0 0 -8.9932e-007 2.16533e-006 -2.94794e-007 -6.81636 -3.12193 3.14874 -86.0558 -3.17195 -170.87 13.6591 0 -4.76837e-007 -103.266 8.42708e-006 -1.51253e-005 9.07516 3.55271e-015 -8.88178e-016 108.705 5.28982e-005 -4.9174e-006 8.13856 -7.6294e-006 -4.76837e-007 -51.4635 -7.43388 -10.6603 3.79738 6.30086 -4.76837e-007 93.8859 -6.62361e-006 5.67746e-006 0.838761 0 4.76837e-007 179.96 0.0001815 -1.12499e-007 12.1684 -0.0102468 -0.00240564 -5.93288 13.1432 5.76873 -0.157493 5.09008 -6.54009 -92.7406 -0.022027 -167.965 -0.157495 5.09007 6.54 87.255 -0.000393422 12.0139 8.2971 8.50413 9.53674e-007 -91.651 -0.0333862 -179.968 13.2807 -0.0100152 -0.00155926 -5.95684 8.83685 -13.1499 12.4895 -6.66661 1.77636e-015 2.5586 -3.82057 7.41581 -7.51061 -1.81252 -2.29058 -161.005 -70.9988 134.644 13.2557 1.77636e-015 0 71.4413 46.3904 -105.895 12.8897 1.90735e-006 9.53675e-007 -80.2777 -1.2276e-006 -4.66493e-006 11.2623 -9.53674e-007 -9.53675e-007 136.834 50.9208 -168.836 3.98015 -0.20866 -0.0949784 11.0954 28.454 19.4595 6.57561 -1.90735e-006 -9.53675e-007 179.96 1.73589e-005 -2.58889e-005 -7.81404 -1.96963 0.0403371 162.851 63.1375 -55.3856 13.2557 -4.76837e-007 -4.44089e-016 -89.9061 -65.8986 -58.1438 12.8897 -2.83122e-007 0 -41.455 8.77844e-007 1.73292e-005 11.2623 1.90735e-006 -4.44089e-016 -41.2187 -11.6648 -4.8163 3.98015 -0.20866 0.0949783 17.7442 -47.2146 17.3856 6.57562 -9.53674e-007 -1.90735e-006 1.928e-007 1.00724e-005 1.90046e-007 4.1934 -0.00320315 -0.000843048 -7.61144 14.6216 -11.2038 4.17604 0.298255 0 36.1993 1.45847 -11.0888 6.53259 -3.90693 -2.55361 164.794 6.7041 156.612 6.5326 -3.90694 2.55371 -19.5491 8.39145 -22.8455 1.75935 -4.1584 -4.45634 24.7931 -39.7306 142.462 1.75933 -4.1584 4.45616 -155.196 -39.7317 -37.5281 11.2964 -1.06183 2.32054 151.28 -2.12725 -89.9983 11.2964 -1.06183 -2.32036 -28.7076 -2.13818 89.9962 1.31489 1.30001 0 -178.692 -3.05398 -178.972 12.6869 0 -9.53674e-007 1.33066e-007 -9.34172e-008 4.24879e-007 
-30.2956 7.67337 0 176.373 -22.8909 -88.91 0 0 1.90735e-006 -105.354 -4.04104 -86.8283 -7.25225 -1.74978 -4.76837e-007 -27.1698 -4.70253 -166.592 15.788 7.10543e-015 -1.90735e-006 12.4819 18.1066 -11.1531 16.0015 1.90735e-006 9.53674e-007 35.1399 -21.587 6.2865 16.1689 -7.6294e-006 -5.96046e-008 36.3023 -17.012 -1.65715 6.52909 2.15392 1.08511 1.79058 -16.8201 3.80821 6.12663 8.45827 4.7682e-007 -88.9944 -0.0325012 -179.967 -6.12636 0.019474 -7.22135 -97.6456 -13.9578 -155.048 13.6591 3.8147e-006 2.4869e-014 -67.1035 4.55261e-006 1.26748e-005 9.07514 7.15256e-007 -3.55271e-015 91.8108 9.31863e-006 1.18878e-006 8.13855 0 3.55271e-015 -73.5822 -7.89698 0.221896 3.79736 6.30085 -1.90725e-006 89.3797 4.64285e-006 -7.30306e-006 0.838763 0 -3.55271e-015 -8.9932e-007 2.16533e-006 -2.94794e-007 -6.81766 -3.12193 3.14589 -86.0559 -3.14681 -170.872 13.6591 -1.06581e-014 -4.76837e-007 -103.266 -1.32447e-006 -1.74217e-005 9.07516 -1.42109e-014 8.88178e-016 108.705 6.23828e-005 -8.13042e-006 8.13856 -7.6294e-006 -4.76837e-007 -51.4635 -7.43388 -10.6603 3.79738 6.30086 -4.76781e-007 93.8859 -6.62325e-006 5.67695e-006 0.838761 -7.10543e-015 4.76837e-007 179.96 0.0001815 -1.12499e-007 12.1684 -0.0102468 -0.00240564 -5.91677 13.1503 5.69791 -0.157493 5.09008 -6.54009 -92.7406 -0.0220269 -167.965 -0.157495 5.09007 6.54 87.255 -0.000393422 12.0139 8.2971 8.50413 9.53502e-007 -91.651 -0.0333862 -179.968 13.2807 -0.0100152 -0.00155926 -5.96511 8.8313 -13.096 12.4895 -6.66661 5.72916e-010 2.5586 -3.82057 7.41581 -7.51061 -1.81252 -2.29058 -161.005 -70.9988 134.644 13.2557 8.88178e-015 -2.66454e-015 71.453 46.3936 -105.881 12.8897 1.90735e-006 9.53675e-007 -80.2777 -1.22942e-006 -4.66965e-006 11.2623 -9.53674e-007 -9.53675e-007 136.833 50.8997 -168.834 3.98015 -0.20866 -0.0949784 11.0954 28.454 19.4595 6.57561 -1.90735e-006 -9.53675e-007 179.96 1.73589e-005 -2.58889e-005 -7.81404 -1.96963 0.0403371 162.851 63.1375 -55.3856 13.2557 -4.76837e-007 -9.76996e-015 -89.9061 -65.8986 -58.1438 12.8897 -2.83122e-007 3.10862e-015 -41.455 8.8259e-007 1.73297e-005 11.2623 1.90735e-006 -4.88498e-015 -41.2187 -11.6648 -4.8163 3.98015 -0.20866 0.0949783 17.7442 -47.2146 17.3856 6.57562 -9.53674e-007 -1.90735e-006 1.928e-007 1.00724e-005 1.90046e-007 4.1934 -0.00320315 -0.000843048 -7.60488 14.6249 -11.2298 4.17604 0.298255 -1.7808e-011 36.1842 1.39244 -11.0664 6.53259 -3.90693 -2.55361 164.794 6.70412 156.612 6.5326 -3.90694 2.55371 -19.5491 8.39145 -22.8455 1.75935 -4.1584 -4.45634 24.7931 -39.7306 142.462 1.75933 -4.1584 4.45616 -155.196 -39.7317 -37.5281 11.2964 -1.06183 2.32054 151.28 -2.12725 -89.9983 11.2964 -1.06183 -2.32036 -28.7076 -2.13818 89.9962 1.31489 1.30001 6.15548e-010 -178.692 -3.054 -178.972 12.6869 0 -9.53674e-007 1.33066e-007 -9.34172e-008 4.24879e-007 
-30.2956 7.67337 0 176.373 -22.8909 -88.91 0 0 1.90735e-006 -105.354 -4.04106 -86.8282 -7.25225 -1.74978 -4.76837e-007 -27.1698 -4.70253 -166.592 15.788 3.55271e-015 -1.90735e-006 12.4819 18.1066 -11.1531 16.0015 1.90735e-006 9.53674e-007 35.1399 -21.587 6.2865 16.1689 -7.6294e-006 -5.96046e-008 36.3023 -17.012 -1.65715 6.52909 2.15392 1.08511 1.79046 -16.8199 3.83096 6.12663 8.45827 4.76799e-007 -88.9944 -0.0325012 -179.967 -6.12336 0.019474 -7.22388 -97.6448 -13.9341 -155.044 13.6591 3.8147e-006 1.06581e-014 -67.1035 4.55289e-006 1.26771e-005 9.07514 7.15256e-007 0 91.8108 9.31971e-006 1.18809e-006 8.13855 7.10543e-015 0 -73.5822 -7.89698 0.221896 3.79736 6.30085 -1.90717e-006 89.3797 4.6436e-006 -7.30386e-006 0.838763 0 -7.10543e-015 -8.9932e-007 2.16533e-006 -2.94794e-007 -6.81894 -3.12193 3.1431 -86.0561 -3.12218 -170.874 13.6591 3.55271e-015 -4.76837e-007 -103.266 -1.3254e-006 -1.74194e-005 9.07516 -1.42109e-014 0 108.705 5.31512e-005 -5.00667e-006 8.13856 -7.6294e-006 -4.76837e-007 -51.4635 -7.43388 -10.6603 3.79738 6.30086 -4.76733e-007 93.8859 -6.62285e-006 5.67652e-006 0.838761 2.13163e-014 4.76837e-007 179.96 0.0001815 -1.12499e-007 12.1684 -0.0102468 -0.00240564 -5.90015 13.1577 5.62489 -0.157493 5.09008 -6.54009 -92.7406 -0.0220419 -167.965 -0.157495 5.09007 6.54 87.255 -0.000393422 12.0139 8.2971 8.50413 9.53325e-007 -91.651 -0.0333862 -179.968 13.2807 -0.0100152 -0.00155926 -5.97374 8.82548 -13.0398 12.4895 -6.66661 1.16101e-009 2.5586 -3.82057 7.41581 -7.51061 -1.81252 -2.29058 -161.004 -70.9988 134.645 13.2557 7.10543e-015 1.77636e-015 71.4644 46.3969 -105.866 12.8897 1.90735e-006 9.53675e-007 -80.2777 -1.2306e-006 -4.67357e-006 11.2623 -9.53674e-007 -9.53675e-007 136.831 50.879 -168.832 3.98015 -0.20866 -0.0949784 11.0954 28.454 19.4595 6.57561 -1.90735e-006 -9.53675e-007 179.96 1.73589e-005 -2.58889e-005 -7.81404 -1.96963 0.0403371 162.851 63.1375 -55.3856 13.2557 -4.76837e-007 -4.44089e-016 -89.9061 -65.8986 -58.1438 12.8897 -2.83122e-007 -1.77636e-015 -41.455 8.87637e-007 1.73305e-005 11.2623 1.90735e-006 -7.54952e-015 -41.2187 -11.6648 -4.8163 3.98015 -0.20866 0.0949783 17.7442 -47.2146 17.3856 6.57562 -9.53674e-007 -1.90735e-006 1.928e-007 1.00724e-005 1.90046e-007 4.1934 -0.00320315 -0.000843048 -7.59843 14.6282 -11.2553 4.17604 0.298255 -3.78773e-011 36.169 1.3255 -11.0402 6.53259 -3.90693 -2.55361 164.794 6.7041 156.612 6.5326 -3.90694 2.55371 -19.5491 8.39145 -22.8455 1.75935 -4.1584 -4.45634 24.7931 -39.7306 142.462 1.75933 -4.1584 4.45616 -155.196 -39.7317 -37.5281 11.2964 -1.06183 2.32054 151.28 -2.12725 -89.9983 11.2964 -1.06183 -2.32036 -28.7076 -2.13818 89.9962 1.31489 1.30001 1.213e-009 -178.692 -3.05403 -178.972 12.6869 8.88179e-015 -9.53674e-007 1.33066e-007 -9.34172e-008 4.24879e-007 
-30.2956 7.67337 0 176.373 -22.8909 -88.91 0 0 1.90735e-006 -105.354 -4.04103 -86.8282 -7.25225 -1.74978 -4.76837e-007 -27.1698 -4.70251 -166.592 15.788 3.55271e-015 -1.90735e-006 12.4819 18.1066 -11.1531 16.0015 1.90735e-006 9.53674e-007 35.1399 -21.587 6.2865 16.1689 -7.6294e-006 -5.96046e-008 36.3023 -17.012 -1.65715 6.52909 2.15392 1.08511 1.79032 -16.8196 3.85393 6.12663 8.45827 4.76778e-007 -88.9944 -0.0325012 -179.967 -6.12033 0.019474 -7.22642 -97.6441 -13.9102 -155.041 13.6591 3.8147e-006 1.06581e-014 -67.1035 4.55319e-006 1.26794e-005 9.07514 7.15256e-007 3.55271e-015 91.8108 9.32083e-006 1.1874e-006 8.13855 0 7.10543e-015 -73.5822 -7.89698 0.221896 3.79736 6.30085 -1.90708e-006 89.3797 4.68767e-006 -7.30419e-006 0.838763 0 7.10543e-015 -8.9932e-007 2.16533e-006 -2.94794e-007 -6.82022 -3.12193 3.14028 -86.0563 -3.09732 -170.876 13.6591 -2.13163e-014 -4.76837e-007 -103.266 8.41678e-006 -1.51204e-005 9.07516 7.10543e-015 -2.66454e-015 108.705 6.2375e-005 -8.13117e-006 8.13856 -7.6294e-006 -4.76837e-007 -51.4635 -7.43388 -10.6603 3.79738 6.30086 -4.76688e-007 93.8859 -6.6224e-006 5.67611e-006 0.838761 1.42109e-014 4.76837e-007 179.96 0.0001815 -1.12498e-007 12.1684 -0.0102468 -0.00240564 -5.88243 13.1655 5.54706 -0.157493 5.09008 -6.54009 -92.7406 -0.0220269 -167.965 -0.157495 5.09007 6.54 87.255 -0.000393422 12.0139 8.2971 8.50413 9.53139e-007 -91.651 -0.0333862 -179.968 13.2807 -0.0100152 -0.00155926 -5.98301 8.81923 -12.9794 12.4895 -6.66661 1.79161e-009 2.5586 -3.82057 7.41581 -7.51061 -1.81252 -2.29058 -161.004 -70.9989 134.645 13.2557 5.32907e-015 -1.77636e-015 71.476 46.4002 -105.852 12.8897 1.90735e-006 9.53675e-007 -80.2777 8.64282e-006 -6.36908e-006 11.2623 -9.53674e-007 -9.53675e-007 136.83 50.8582 -168.829 3.98015 -0.20866 -0.0949784 11.0954 28.454 19.4595 6.57561 -1.90735e-006 -9.53675e-007 179.96 1.73589e-005 -2.58889e-005 -7.81404 -1.96963 0.0403371 162.85 63.1375 -55.3856 13.2557 -4.76837e-007 7.32747e-015 -89.9061 -65.8986 -58.1438 12.8897 -2.83122e-007 -8.88178e-016 -41.455 8.93108e-007 1.73314e-005 11.2623 1.90735e-006 1.77636e-015 -41.2187 -11.6648 -4.8163 3.98015 -0.20866 0.0949783 17.7442 -47.2146 17.3856 6.57562 -9.53674e-007 -1.90735e-006 1.928e-007 1.00724e-005 1.90046e-007 4.1934 -0.00320315 -0.000843048 -7.591 14.632 -11.2847 4.17604 0.298255 -5.75771e-011 36.1534 1.2535 -11.016 6.53259 -3.90693 -2.55361 164.794 6.70412 156.612 6.5326 -3.90694 2.55371 -19.5491 8.39145 -22.8455 1.75935 -4.1584 -4.45634 24.7931 -39.7306 142.462 1.75933 -4.1584 4.45616 -155.196 -39.7317 -37.5281 11.2964 -1.06183 2.32054 151.28 -2.12725 -89.9983 11.2964 -1.06183 -2.32036 -28.7076 -2.13818 89.9962 1.31489 1.30001 1.88074e-009 -178.692 -3.05409 -178.971 12.6869 7.10543e-015 -9.53674e-007 1.33066e-007 -9.34172e-008 4.24879e-007 
